<svg id="wasd-keys" xmlns="http://www.w3.org/2000/svg" viewBox="0 0 201.18559 137.95545">
  <g class="hero-text-fill" style="fill: white;">
    <path d="M116.58322 0H61.82729a3.03075 3.03075 0 100 6.0615h24.246a3.03075 3.03075 0 010 6.0615h-30.3075a3.03075 3.03075 0 000 6.0615H72.738a3.03075 3.03075 0 010 6.0615h-8.78919a3.33382 3.33382 0 000 6.66764h11.81992a3.03075 3.03075 0 010 6.0615H50.91659a3.03075 3.03075 0 000 6.0615h32.12594a3.03075 3.03075 0 010 6.0615H63.64574a3.03075 3.03075 0 000 6.0615h52.93748a6.48422 6.48422 0 006.46521-6.46521V6.4652A6.4842 6.4842 0 00116.58322 0zm-12.495 36.51106h-4.47927l-4.03971-13.87752-4.09448 13.87752h-4.452l-6.48533-19.23638h4.67162l4.177 14.67457 4.14953-14.67457h4.25962l4.20428 14.67457 4.12229-14.67457h4.47923zM71.72813 61.22114H13.94145a3.03075 3.03075 0 000 6.0615h27.27674a3.03075 3.03075 0 010 6.0615H3.03075a3.03075 3.03075 0 100 6.06149H36.369a3.03075 3.03075 0 110 6.0615H19.69987a3.33383 3.33383 0 000 6.66765h10.00147a3.03075 3.03075 0 110 6.0615H12.123a3.03075 3.03075 0 000 6.0615h21.82139a3.03075 3.03075 0 110 6.0615H16.9722a3.03075 3.03075 0 000 6.0615h54.75593a6.48422 6.48422 0 006.4652-6.46521V67.68634a6.48418 6.48418 0 00-6.4652-6.4652zM56.609 97.7322l-1.51153-3.73753h-8.9037l-1.51123 3.73753H40.203l8.3541-19.23638h4.47953L61.2531 97.7322z"/>
    <path d="M47.623 90.505h6.073l-3.023-7.475-3.05 7.475zM132.94927 61.22114H90.72a6.48419 6.48419 0 00-6.46521 6.4652v42.22923a6.48422 6.48422 0 006.46521 6.46521h42.22923a6.48422 6.48422 0 006.4652-6.46521V67.68634a6.48419 6.48419 0 00-6.46516-6.4652zm-14.17112 34.05153a6.01826 6.01826 0 01-2.67914 2.01971 10.30437 10.30437 0 01-3.87486.68725 13.25685 13.25685 0 01-4.58993-.82458 12.38835 12.38835 0 01-3.90179-2.25353l1.73114-3.54455a11.71048 11.71048 0 003.35276 2.1156 9.01958 9.01958 0 003.46228.79676 3.82014 3.82014 0 002.10258-.49427 1.728 1.728 0 00.24743-2.65191A3.91318 3.91318 0 00113.337 90.34q-.78314-.30189-2.157-.68665a24.54365 24.54365 0 01-3.22964-1.09984 5.6676 5.6676 0 01-2.15674-1.67638 4.6322 4.6322 0 01-.90686-2.99523 5.08032 5.08032 0 01.93409-3.03667 5.92641 5.92641 0 012.61076-2.0055 10.04776 10.04776 0 013.90209-.70086 13.51525 13.51525 0 013.90268.57655 13.22684 13.22684 0 013.40723 1.53905l-1.67639 3.6002a14.59158 14.59158 0 00-3.14677-1.44316 9.53825 9.53825 0 00-2.84369-.53511 3.34945 3.34945 0 00-1.78649.412 1.33847 1.33847 0 00-.65942 1.20875 1.69381 1.69381 0 00.94829 1.55325 14.66377 14.66377 0 002.92657 1.11286 25.29214 25.29214 0 013.25628 1.15429 5.7721 5.7721 0 012.18486 1.73084 4.7998 4.7998 0 01.90686 3.05028 5.22888 5.22888 0 01-.97556 3.174zM175.73966 82.90639a5.7938 5.7938 0 00-2.9538-.75532h-3.73753v11.92647h3.92932a5.53779 5.53779 0 002.87211-.75591 5.25329 5.25329 0 001.99248-2.102 6.47054 6.47054 0 00.71389-3.07811 6.3433 6.3433 0 00-.75532-3.10533 5.43614 5.43614 0 00-2.06115-2.1298z"/>
    <path d="M194.17041 61.22114h-42.22924a6.48419 6.48419 0 00-6.4652 6.4652v42.22923a6.48422 6.48422 0 006.4652 6.46521h42.22924a6.48422 6.48422 0 006.4652-6.46521V67.68634a6.48419 6.48419 0 00-6.4652-6.4652zM181.67567 93.102a9.01993 9.01993 0 01-3.64164 3.40722 11.317 11.317 0 01-5.331 1.223h-7.99715v-19.2364h8.16171a11.04348 11.04348 0 015.24935 1.223 8.867 8.867 0 013.586 3.40782 9.69223 9.69223 0 011.27741 4.98771 9.543 9.543 0 01-1.30468 4.98765z"/>
    <path d="M149.10063 134.93787h9.55468l-.52539 3.01758h-12.57226l.8916-5.12012a5.13565 5.13565 0 014.8457-4.11426h4.27442a1.4126 1.4126 0 001.34863-1.14258l.13769-.86914a.92146.92146 0 00-.9375-1.14258h-6.332l-.36523-3.04h7.31445a3.36687 3.36687 0 013.38281 4.11426l-.18261 1.00586a5.13566 5.13566 0 01-4.84571 4.11426H150.793a1.43325 1.43325 0 00-1.34961 1.14258zM175.58988 126.641l-1.27929 7.2002a5.11113 5.11113 0 01-4.82325 4.11426h-3.20019a3.38138 3.38138 0 01-3.40527-4.11426l1.27929-7.2002a5.13566 5.13566 0 014.84571-4.11426h3.20019a3.36643 3.36643 0 013.38281 4.11426zm-3.0625.06836a.92146.92146 0 00-.9375-1.14258h-3.085a1.43306 1.43306 0 00-1.34863 1.14258l-1.23438 7.08594a.93966.93966 0 00.93653 1.14258h3.08594a1.436 1.436 0 001.34863-1.14258zM181.18754 134.93787h9.55469l-.52637 3.01758h-12.57129l.8916-5.12012a5.13565 5.13565 0 014.84571-4.11426h4.27441a1.41344 1.41344 0 001.34863-1.14258l.13672-.86914a.92126.92126 0 00-.93652-1.14258h-6.332l-.36524-3.04h7.31446a3.36687 3.36687 0 013.38281 4.11426l-.18262 1.00586a5.13585 5.13585 0 01-4.84668 4.11426H182.879a1.43306 1.43306 0 00-1.34864 1.14258zM198.46488 137.95545h-3.04l2.17188-12.38868h-1.874l1.46289-3.04h4z"/>
  </g>
</svg>
